<mxfile host="app.diagrams.net" modified="2023-12-29T00:32:05.297Z" agent="Mozilla/5.0 (Windows NT 10.0; Win64; x64) AppleWebKit/537.36 (KHTML, like Gecko) Chrome/120.0.0.0 Safari/537.36" etag="t9qOUbkFy6CNznvs_2RU" version="22.1.15" type="github">
  <diagram name="페이지-1" id="CfTsEdYrUQADP-SYxcvu">
    <mxGraphModel dx="1887" dy="898" grid="0" gridSize="10" guides="1" tooltips="1" connect="1" arrows="1" fold="1" page="0" pageScale="1" pageWidth="827" pageHeight="1169" math="0" shadow="0">
      <root>
        <mxCell id="0" />
        <mxCell id="1" parent="0" />
      </root>
    </mxGraphModel>
  </diagram>
</mxfile>
